<?xml version="1.0" standalone="no"?>
<!DOCTYPE svg PUBLIC "-//W3C//DTD SVG 20010904//EN"
 "http://www.w3.org/TR/2001/REC-SVG-20010904/DTD/svg10.dtd">
<svg version="1.0" xmlns="http://www.w3.org/2000/svg" viewBox="0 0 300.000000 200.000000"
 preserveAspectRatio="xMidYMid meet">
<metadata>
Created by potrace 1.10, written by Peter Selinger 2001-2011
</metadata>
<g transform="translate(0.000000,270.000000) scale(0.100000,-0.100000)"
stroke="none">
<path d="M1832 2208 c3 -7 33 -23 68 -36 35 -12 70 -28 77 -34 17 -14 16 -35
-2 -42 -18 -6 -105 29 -105 43 0 6 21 1 46 -10 26 -11 49 -17 52 -15 3 3 -8
10 -24 16 -68 25 -106 45 -120 64 -13 19 -14 20 -14 1 0 -10 18 -40 40 -66 42
-50 42 -51 -14 -79 -34 -18 -71 -64 -80 -102 -5 -21 0 -34 24 -61 37 -42 37
-50 4 -76 l-26 -20 -39 20 -39 20 25 37 c29 42 31 71 10 113 -15 29 -15 31 10
60 46 55 26 116 -49 150 -60 27 -106 24 -152 -9 -52 -38 -64 -54 -71 -95 -4
-30 0 -39 31 -70 30 -31 35 -41 30 -67 -4 -17 -9 -32 -13 -34 -4 -3 -31 1 -61
8 -82 19 -116 7 -172 -55 l-47 -54 -81 -6 c-44 -3 -86 -11 -92 -17 -9 -9 13
-12 94 -12 l107 0 36 55 c43 64 66 73 143 57 63 -13 206 -73 282 -118 l55 -33
57 57 c32 31 57 60 58 65 0 4 -9 7 -20 7 -11 0 -20 5 -20 10 0 6 -9 10 -19 10
-11 0 -23 5 -26 10 -4 7 58 10 180 10 122 0 184 -3 180 -10 -3 -5 -14 -10 -24
-10 -9 0 -22 -5 -28 -11 -7 -7 -47 -14 -90 -17 -43 -2 -85 -8 -95 -13 -9 -5
-37 -45 -62 -89 -46 -79 -47 -80 -86 -80 -22 0 -58 7 -80 16 -23 9 -42 15 -43
13 -1 -2 -21 -26 -43 -54 l-41 -50 81 0 c63 -1 90 -6 121 -22 46 -24 86 -64
109 -110 21 -41 77 -196 72 -200 -1 -2 -31 31 -65 72 l-61 75 -93 1 c-146 1
-152 17 -7 19 154 2 134 18 -25 20 -144 2 -186 18 -50 20 97 1 99 1 66 15 -18
9 -64 15 -103 15 -63 0 -78 -5 -171 -50 -128 -63 -196 -79 -254 -59 -38 12
-239 176 -230 186 2 2 38 -13 80 -32 42 -20 105 -43 140 -52 60 -16 67 -16
109 0 45 18 88 50 88 67 0 6 -68 10 -167 11 -93 1 -179 5 -193 9 -14 5 84 8
232 7 171 -1 254 1 247 8 -14 14 -487 23 -517 10 -49 -22 -39 -57 35 -125 123
-113 151 -129 229 -130 53 0 153 31 223 70 30 16 59 30 65 30 6 0 36 -16 66
-35 49 -32 61 -35 128 -35 l74 0 70 -71 c67 -69 70 -70 89 -53 25 23 24 34
-11 132 -43 121 -103 199 -175 227 -17 7 -15 9 15 17 47 13 73 39 116 115 37
67 32 64 147 77 46 6 100 27 122 50 6 6 11 30 10 53 -1 52 -35 92 -108 129
-26 14 -50 33 -53 42 -16 52 -30 66 -98 89 -80 26 -89 28 -84 11z m-198 -37
c3 -4 19 -11 35 -14 56 -11 67 -86 16 -109 -30 -14 -32 -41 -4 -76 38 -48 3
-112 -62 -112 -29 0 -42 6 -58 26 -25 32 -26 47 -5 84 21 34 13 61 -14 53 -24
-6 -62 28 -62 55 0 21 27 62 41 62 5 0 18 9 29 20 20 20 74 27 84 11z m367
-110 c13 -10 35 -22 49 -26 52 -16 100 -66 100 -105 0 -6 -62 -10 -185 -10
-102 0 -185 3 -185 8 0 34 82 112 118 112 8 0 25 9 39 20 31 25 34 25 64 1z"/>
<path d="M1917 1873 c18 -2 50 -2 70 0 21 2 7 4 -32 4 -38 0 -55 -2 -38 -4z"/>
<path d="M1334 1805 l-29 -24 125 -1 c69 0 136 -3 150 -6 21 -6 23 -4 12 7 -7
8 -46 15 -100 19 -48 3 -96 11 -108 17 -17 10 -25 8 -50 -12z"/>
<path d="M1030 1766 c0 -10 71 -36 112 -41 22 -3 44 -8 50 -11 9 -6 37 23 38
38 0 4 -24 6 -52 5 -29 -1 -74 2 -100 6 -27 5 -48 6 -48 3z"/>
<path d="M1244 1732 c-17 -15 -34 -34 -37 -43 -4 -13 -24 -17 -96 -21 -52 -2
-96 -9 -103 -16 -9 -9 36 -12 199 -12 178 0 212 2 217 15 4 12 -7 15 -67 15
-40 0 -79 5 -87 10 -10 7 36 10 140 11 96 0 147 4 135 9 -11 5 -69 9 -130 9
-153 2 -188 15 -56 21 71 3 106 9 109 18 3 9 -20 12 -95 12 -92 -1 -100 -2
-129 -28z"/>
<path d="M643 1215 c-14 -10 -29 -40 -42 -83 -33 -114 -34 -136 -11 -157 15
-14 19 -26 15 -43 -11 -43 18 -62 95 -62 47 0 82 -6 115 -21 40 -18 63 -20
158 -18 62 1 122 -1 134 -5 14 -4 33 -1 51 8 26 14 31 13 53 -2 20 -14 48 -16
192 -14 93 1 177 7 188 12 13 8 25 7 41 -1 15 -8 76 -11 193 -10 93 2 206 3
250 2 76 0 117 1 294 3 l75 1 33 43 c36 47 41 73 18 92 -13 10 -12 17 6 53 15
29 19 50 15 78 -3 21 -2 49 4 64 8 22 6 30 -15 51 -25 25 -29 25 -128 20 -56
-3 -111 -5 -122 -5 -16 1 -430 1 -542 1 -156 0 -272 1 -288 1 -11 1 -96 0
-190 -1 -93 -1 -179 -1 -190 -1 -11 0 -101 2 -200 5 -153 4 -183 2 -202 -11z
m257 -22 c0 -5 -3 -18 -6 -30 -6 -20 -13 -22 -92 -25 -52 -2 -87 -7 -89 -14
-3 -8 10 -10 40 -7 44 5 45 5 40 -21 -5 -23 -10 -26 -48 -26 -29 0 -45 -5 -49
-15 -4 -13 8 -15 79 -15 61 0 85 -3 85 -12 -1 -31 -17 -36 -138 -40 -119 -3
-123 -2 -117 17 3 11 15 59 27 108 l21 87 123 0 c68 0 124 -3 124 -7z m114 -5
c17 -56 16 -55 44 -20 22 26 34 32 65 32 20 0 37 -4 37 -8 0 -4 -20 -27 -44
-51 l-44 -43 24 -54 c13 -30 24 -56 24 -57 0 -1 -23 -2 -51 -2 -47 0 -51 2
-56 28 -7 33 -16 34 -40 3 -12 -16 -32 -25 -60 -29 -24 -3 -43 -2 -43 2 0 3
21 30 47 60 l46 53 -21 44 c-12 25 -22 47 -22 49 0 12 91 4 94 -7z m406 -4
c14 -14 -6 -98 -28 -116 -8 -7 -46 -14 -86 -15 -70 -1 -71 -2 -80 -31 -7 -26
-14 -31 -47 -34 -22 -2 -39 0 -39 5 0 8 38 170 46 196 3 10 28 12 114 9 60 -2
114 -8 120 -14z m270 0 c14 -14 -5 -94 -21 -94 -6 0 -8 -9 -4 -20 4 -11 4 -33
0 -49 -5 -25 -11 -30 -46 -33 l-40 -4 6 38 7 38 -46 0 c-41 0 -46 -2 -46 -22
0 -13 -4 -28 -8 -34 -8 -13 -82 -24 -82 -12 0 7 38 167 46 196 5 17 217 13
234 -4z m290 9 c0 -5 -3 -18 -6 -30 -6 -20 -13 -22 -90 -25 -50 -2 -83 -7 -82
-13 2 -5 21 -8 42 -6 33 2 38 0 32 -14 -3 -9 -6 -21 -6 -26 0 -5 -20 -9 -45
-9 -33 0 -45 -4 -45 -15 0 -12 16 -15 80 -15 79 0 86 -3 74 -34 -5 -13 -26
-16 -129 -16 l-122 0 25 105 26 105 123 0 c68 0 123 -3 123 -7z m250 0 c0 -5
-3 -18 -6 -30 -6 -21 -12 -23 -85 -23 -46 0 -79 -4 -79 -10 0 -6 30 -10 69
-10 81 0 95 -11 86 -64 -11 -57 -27 -64 -153 -68 -61 -2 -112 -1 -112 2 0 3 3
15 6 28 6 21 11 22 95 22 72 0 89 3 89 15 0 12 -15 15 -75 15 -88 0 -97 9 -74
74 10 28 21 42 39 47 34 10 200 11 200 2z m266 -9 c-3 -9 -6 -22 -6 -30 0 -11
-18 -14 -79 -14 -44 0 -83 -4 -86 -10 -4 -6 19 -10 62 -10 88 0 107 -12 98
-62 -11 -59 -26 -66 -153 -70 -115 -3 -120 -1 -106 36 5 13 23 16 95 16 71 0
89 3 89 15 0 11 -18 15 -77 17 l-78 3 -3 30 c-3 40 18 78 48 86 14 4 65 7 114
8 76 1 87 -1 82 -15z m-1586 -76 c0 -6 -7 -19 -16 -29 -13 -14 -20 -16 -40 -7
-32 15 -30 22 9 35 45 14 47 14 47 1z m460 -103 c20 -24 1 -36 -51 -34 -62 3
-76 11 -54 33 21 20 88 21 105 1z m-140 -75 c0 -5 -17 -11 -37 -11 -21 -1 -30
-3 -20 -6 23 -6 22 -33 -2 -33 -10 0 -21 -7 -25 -15 -3 -8 -14 -15 -25 -15
-18 0 -19 3 -10 33 6 17 12 38 15 45 4 15 104 17 104 2z m115 -27 c-10 -53
-10 -53 -71 -53 -59 0 -58 -1 -43 53 l10 37 56 0 55 0 -7 -37z m135 30 c0 -5
-5 -25 -11 -45 l-10 -38 -56 0 -55 0 7 37 c4 21 9 41 11 45 7 10 114 10 114 1z
m115 -30 c-10 -53 -10 -53 -69 -53 l-53 0 10 45 10 45 55 0 54 0 -7 -37z m167
13 c-10 -57 -19 -66 -72 -66 -55 0 -54 -1 -39 53 l10 38 52 -3 c45 -3 52 -6
49 -22z m128 14 c0 -5 -18 -10 -40 -10 -22 0 -40 -4 -40 -10 0 -5 7 -7 15 -4
10 4 15 0 15 -11 0 -12 -5 -15 -20 -10 -11 4 -20 2 -20 -4 0 -6 16 -11 35 -11
19 0 35 -4 35 -10 0 -5 -25 -10 -56 -10 -48 0 -55 2 -50 18 3 9 8 29 12 45 6
25 10 27 60 27 30 0 54 -4 54 -10z m40 -16 c-14 -36 -13 -44 10 -44 11 0 20
-4 20 -10 0 -5 -18 -10 -40 -10 -44 0 -44 0 -29 53 7 26 15 37 29 37 17 0 18
-4 10 -26z m150 -1 l1 -28 15 28 c8 15 23 27 34 27 18 0 18 -3 -8 -45 -21 -36
-32 -45 -54 -45 -26 0 -28 3 -28 40 0 22 -4 40 -9 40 -5 0 -12 -18 -16 -40 -5
-30 -11 -40 -26 -40 -22 0 -22 2 -8 53 10 36 12 37 54 37 42 0 45 -2 45 -27z
m296 -5 c-3 -17 -6 -37 -6 -44 0 -8 -9 -14 -20 -14 -11 0 -20 7 -20 15 0 8 -7
15 -15 15 -9 0 -18 -7 -21 -15 -5 -12 -24 -15 -84 -15 l-79 0 15 45 16 44 110
0 110 0 -6 -31z m54 20 c0 -9 3 -9 12 0 7 7 23 12 36 12 23 0 23 -1 -7 -26
-17 -14 -31 -34 -31 -45 0 -12 -7 -19 -19 -19 -13 0 -18 7 -18 28 0 15 -3 35
-7 45 -6 13 -3 17 13 17 12 0 21 -5 21 -12z m-1340 -18 c0 -13 -450 -13 -470
0 -10 6 67 10 228 10 155 0 242 -4 242 -10z m-10 -41 c0 -10 -221 -13 -257 -3
-52 14 -15 19 117 16 79 -2 140 -7 140 -13z"/>
<path d="M1250 1122 c0 -14 7 -17 45 -14 30 3 45 9 45 18 0 10 -13 14 -45 14
-36 0 -45 -3 -45 -18z"/>
<path d="M1520 1122 c0 -15 7 -18 43 -16 29 1 43 7 45 18 3 13 -6 16 -42 16
-38 0 -46 -3 -46 -18z"/>
<path d="M1266 904 c-11 -28 -7 -35 17 -32 29 4 38 48 9 48 -11 0 -23 -7 -26
-16z"/>
<path d="M1397 913 c-15 -14 -7 -43 12 -43 17 0 31 18 31 41 0 10 -33 12 -43
2z"/>
<path d="M1517 894 c-4 -21 -1 -25 17 -22 28 4 36 48 8 48 -13 0 -21 -9 -25
-26z"/>
<path d="M1686 904 c-10 -26 -7 -34 14 -34 11 0 20 4 20 9 0 5 3 16 6 25 4 11
0 16 -14 16 -11 0 -23 -7 -26 -16z"/>
<path d="M2228 922 c-21 -2 -38 -7 -38 -12 0 -5 7 -7 16 -3 12 4 15 2 12 -8
-3 -8 -13 -13 -22 -13 -9 1 -16 -2 -16 -6 0 -4 18 -10 40 -12 36 -3 40 -1 46
25 7 34 9 33 -38 29z"/>
</g>
</svg>
