<svg xmlns="http://www.w3.org/2000/svg" width="100" height="100" viewBox="0 0 100 100" version="1.1"><path d="" stroke="none" fill-rule="evenodd"/><path d="M 35.270 0.729 C 31.858 1.349, 29 5.681, 29 10.235 C 29 13.411, 29.677 14.877, 32.400 17.600 C 35.281 20.481, 36.502 21, 40.400 21 C 43.647 21, 45.581 20.419, 46.975 19.025 C 54.323 11.677, 46.064 -1.233, 35.270 0.729 M 35.200 7.200 C 33.343 9.057, 33.770 11.435, 36.402 13.908 C 39.878 17.173, 43.410 16.428, 43.806 12.346 C 44.036 9.982, 43.541 8.792, 41.834 7.596 C 39.119 5.695, 36.841 5.559, 35.200 7.200 M 71.380 17.452 C 70.205 20.514, 72.134 21, 85.452 21 C 95.858 21, 98.902 20.697, 99.315 19.622 C 100.438 16.695, 97.647 16, 84.769 16 C 74.473 16, 71.827 16.287, 71.380 17.452 M 31.299 26.378 C 24.576 29.590, 18.011 36.503, 14.057 44.536 C 10.863 51.023, 8.049 61.841, 8.017 67.750 C 8.001 70.806, 7.787 71, 4.430 71 C 1.301 71, 0.900 71.277, 1.180 73.250 L 1.500 75.500 38.500 75.500 L 75.500 75.500 75.820 73.250 L 76.139 71 45.070 71 L 14 71 14 66.105 C 14 50.704, 25.255 33.163, 37.201 29.946 C 52.949 25.705, 77.759 46.667, 85.550 70.794 L 87.259 76.089 93.380 75.794 C 98.735 75.537, 99.500 75.250, 99.500 73.500 C 99.500 71.880, 98.734 71.444, 95.468 71.203 C 91.653 70.922, 91.346 70.654, 89.750 66.203 C 84.803 52.401, 69.093 34.059, 57 27.966 C 47.941 23.401, 38.723 22.831, 31.299 26.378 M 81.336 33.567 C 80.346 36.146, 82.406 37.132, 88.107 36.807 C 92.827 36.538, 93.540 36.219, 93.820 34.250 C 94.121 32.128, 93.793 32, 88.038 32 C 83.421 32, 81.791 32.381, 81.336 33.567 M 46.337 37.564 C 45.874 38.770, 46.237 39.727, 47.425 40.436 C 49.908 41.918, 58.082 47.295, 59.658 48.483 C 60.564 49.166, 61.476 48.952, 62.645 47.783 C 64.703 45.726, 63.743 44.295, 57.355 39.900 C 51.765 36.054, 47.281 35.104, 46.337 37.564 M 67 55.311 C 67 58.239, 70.532 62.117, 72.507 61.359 C 74.437 60.618, 74.410 58.030, 72.443 55.223 C 70.332 52.208, 67 52.262, 67 55.311 M 20.289 81.250 C 17.041 84.799, 16.682 87.492, 18.815 92.314 C 20.356 95.797, 21.603 97.024, 24.979 98.375 C 36.578 103.016, 43.587 89.720, 33.857 81.533 C 29.828 78.143, 23.259 78.006, 20.289 81.250 M 70.289 81.250 C 67.041 84.799, 66.682 87.492, 68.815 92.314 C 70.356 95.797, 71.603 97.024, 74.979 98.375 C 86.578 103.016, 93.587 89.720, 83.857 81.533 C 79.828 78.143, 73.259 78.006, 70.289 81.250 M 24.250 84.662 C 23.563 84.940, 23 86.254, 23 87.583 C 23 93.536, 32.148 96.546, 32.811 90.811 C 33.332 86.294, 28.610 82.903, 24.250 84.662 M 74.250 84.662 C 73.563 84.940, 73 86.254, 73 87.583 C 73 93.536, 82.148 96.546, 82.811 90.811 C 83.332 86.294, 78.610 82.903, 74.250 84.662" stroke="none" fill-rule="evenodd"/></svg>
